<svg height="71" viewBox="0 0 306 71" width="306" xmlns="http://www.w3.org/2000/svg" xmlns:xlink="http://www.w3.org/1999/xlink"><linearGradient id="a"><stop offset="0" stop-color="#6a11cb"/><stop offset="1" stop-color="#2575fc"/></linearGradient><linearGradient id="b" x1="-16.826117%" x2="219.3%" xlink:href="#a" y1="68.255184%" y2="-19.959866%"/><linearGradient id="c" x1="-104.295098%" x2="112.418627%" xlink:href="#a" y1="86.9491%" y2="21.510283%"/><g fill="none" transform=""><path d="m36.3090909 2.5875v26.0475c0 4.3125-.8636364 7.4175-2.5909091 9.315s-4.4909091 2.9325-8.2909091 2.9325-6.5636363-.8625-8.2909091-2.76c-1.7272727-1.8975-2.5909091-5.0025-2.5909091-9.4875v-26.0475h-14.33636359v26.0475c0 7.7625 1.55454545 13.455 4.66363636 17.595.51818182.5175.86363637 1.2075 1.38181818 1.725 4.14545455 4.14 10.53636365 6.21 19.17272725 6.21 8.4636364 0 14.8545455-2.07 19-6.21.5181818-.5175.8636364-1.035 1.3818182-1.725 3.1090909-4.14 4.6636364-10.005 4.6636364-17.595v-26.0475z" fill="url(#b)"/><path d="m59.4545455 67.7925v-65.3775h13.8181818v8.1075c1.9-3.2775 4.1454545-5.6925 6.9090909-7.4175 2.7636363-1.5525 5.8727273-2.415 9.5-2.415 7.0818182 0 12.6090908 2.415 16.5818178 7.0725 3.972728 4.6575 6.045455 11.2125 6.045455 19.4925 0 8.1075-2.072727 14.49-6.045455 19.32-3.972727 4.83-9.3272724 7.245-15.8909087 7.245-3.9727273 0-7.2545455-.69-10.0181818-2.2425-2.7636364-1.38-5.1818182-3.795-7.0818182-6.9.1727272 1.2075.3454545 2.5875.3454545 4.14 0 1.38.1727273 3.105.1727273 5.0025v13.8h-14.3363636zm13.1272727-40.5375c0 4.485 1.0363636 7.935 3.2818182 10.5225 2.2454545 2.415 5.3545454 3.795 9.1545454 3.795 3.9727273 0 7.0818182-1.2075 9.1545455-3.795 2.2454545-2.415 3.2818182-6.0375 3.2818182-10.5225s-1.0363637-7.935-3.2818182-10.5225c-2.2454546-2.5875-5.3545455-3.795-9.3272728-3.795-3.8 0-6.9090909 1.38-9.1545454 3.9675-2.0727273 2.2425-3.1090909 5.865-3.1090909 10.35z" fill="url(#c)"/><g fill="#3a3a3a"><path d="m124 68v-65h14v65z"/><path d="m46 68c-.5189873-.5217391-.8649789-1.2173913-1.3839662-1.7391304-4.1518988-4.1739131-10.5527427-6.2608696-19.2025317-6.2608696-8.4767932 0-14.8776371 2.0869565-19.02953586 6.2608696-.51898734.5217391-.8649789 1.0434782-1.38396624 1.7391304z"/><path d="m198 67.9350649h-14.029412l.173203-7.0551948c-1.905229 3.0974026-4.330066 5.3344156-7.101307 6.8831169-2.771242 1.3766234-6.062092 2.237013-10.045752 2.237013-6.581699 0-11.95098-2.4090909-15.93464-7.2272727-3.983661-4.8181818-6.062092-11.3571429-6.062092-19.2727273 0-8.2597403 1.905229-14.7987013 5.888889-19.4448052s9.526144-7.0551948 16.627451-7.0551948c3.637255 0 6.928104.8603896 9.699346 2.4090909 2.771242 1.7207792 5.196079 4.1298701 7.101307 7.3993507v-8.0876624h13.683007zm-13.163399-24.7792207c0-4.474026-1.039215-7.9155845-3.290849-10.4967533s-5.196079-3.9577922-9.179739-3.9577922-6.928105 1.2045455-9.179738 3.7857143c-2.251634 2.5811688-3.29085 6.0227273-3.29085 10.4967532 0 4.474026 1.039216 7.9155844 3.29085 10.4967533 2.251633 2.4090909 5.196078 3.7857143 9.179738 3.7857143s7.101307-1.2045455 9.352941-3.7857143c1.905229-2.4090909 3.117647-5.8506494 3.117647-10.3246753z"/><path d="m206 67.9170984v-64.9170984h13.901639v14.5803109c0 1.5621761 0 3.1243523-.17377 4.6865285-.173771 1.5621761-.347541 3.1243523-.521312 4.5129533 2.432787-3.6450777 4.865574-6.2487046 7.645902-7.8108808 2.780328-1.5621761 5.908197-2.4300518 9.557377-2.4300518 7.12459 0 12.685246 2.4300518 16.681967 7.1165803 3.996722 4.6865285 5.908197 11.2823834 5.908197 19.6139897 0 8.158031-2.085246 14.5803108-6.081967 19.4404145-3.996722 4.8601036-9.383607 7.2901554-15.986885 7.2901554-3.996722 0-7.298361-.6943005-10.078689-2.2564767-2.780328-1.388601-5.213115-3.8186528-7.12459-6.9430052l.17377 7.1165803zm13.206557-24.9948186c0 4.5129534 1.042623 7.984456 3.30164 10.5880829 2.259016 2.4300518 5.386885 3.8186528 9.209836 3.8186528 3.996721 0 7.12459-1.2150259 9.209836-3.8186528 2.259016-2.4300518 3.301639-6.0751295 3.301639-10.5880829s-1.042623-7.984456-3.301639-10.5880829c-2.259017-2.603627-5.386885-3.8186529-9.383607-3.8186529-3.822951 0-6.950819 1.3886011-9.209836 3.992228-1.911475 2.2564767-3.127869 5.9015544-3.127869 10.4145078z"/><path d="m264 59.8874598 11.153527-5.7299035c.348548 1.9099678 1.394191 3.4726688 2.962656 4.5144694 1.568464 1.0418007 3.659751 1.7363344 6.099585 1.7363344s4.182572-.3472669 5.576763-1.2154341 2.091286-2.0836012 2.091286-3.6463022c0-2.4308682-2.439834-4.340836-7.319502-6.0771704-1.568464-.5209003-2.614108-.8681672-3.485477-1.2154341-5.925311-2.2572347-9.93361-4.340836-12.19917-6.5980707-2.26556-2.2572348-3.311203-5.0353698-3.311203-8.3344052 0-4.8617363 1.917012-8.8553055 5.751037-11.8070739 3.834025-2.9517685 8.887967-4.5144695 15.161826-4.5144695 4.53112 0 8.365145.8681672 11.676348 2.778135 3.311204 1.7363345 5.751038 4.3408361 7.145229 7.6398714l-10.630706 5.2090032c-.522821-1.9099678-1.568465-3.2990353-2.962655-4.1672025-1.394191-1.0418007-3.13693-1.3890676-5.40249-1.3890676-2.091286 0-3.834025.5209004-5.228216 1.3890676s-1.917012 2.0836013-1.917012 3.4726688c0 2.4308682 3.311203 4.8617363 9.93361 6.9453376.697095.1736334 1.394191.3472669 1.742738.5209003 5.40249 1.7363344 9.410789 3.8199357 11.676349 6.2508039s3.485477 5.3826366 3.485477 9.2025723c0 4.8617364-1.917012 8.8553055-5.751037 11.807074s-9.062241 4.340836-15.510374 4.340836c-5.228216 0-9.585062-1.0418006-13.244813-2.9517685-3.834025-2.2572347-6.273859-4.8617363-7.493776-8.1607717z"/></g></g></svg>